<?xml version="1.0" encoding="utf-8"?>
<!-- Generator: Adobe Illustrator 16.0.0, SVG Export Plug-In . SVG Version: 6.00 Build 0)  -->
<!DOCTYPE svg PUBLIC "-//W3C//DTD SVG 1.1//EN" "http://www.w3.org/Graphics/SVG/1.1/DTD/svg11.dtd">
<svg version="1.1" id="Layer_1" xmlns="http://www.w3.org/2000/svg" xmlns:xlink="http://www.w3.org/1999/xlink" x="0px" y="0px"
	 width="48px" height="48px" viewBox="0 0 48 48" enable-background="new 0 0 48 48" xml:space="preserve">
<path opacity="0.15" fill-rule="evenodd" clip-rule="evenodd" fill="#FFFFFF" d="M24,0c13.3,0,24,10.7,24,24c0,13.3-10.7,24-24,24
	S0,37.3,0,24C0,10.7,10.7,0,24,0z"/>
<linearGradient id="SVGID_1_" gradientUnits="userSpaceOnUse" x1="35.9102" y1="14.0806" x2="12.3779" y2="33.6816">
	<stop  offset="0" style="stop-color:#35ADE3"/>
	<stop  offset="1" style="stop-color:#1281C2"/>
</linearGradient>
<path fill-rule="evenodd" clip-rule="evenodd" fill="url(#SVGID_1_)" d="M24,4c11,0,20,9,20,20c0,11-9,20-20,20S4,35,4,24
	C4,13,13,4,24,4z"/>
<g>
	<g>
		<polygon fill-rule="evenodd" clip-rule="evenodd" fill="#FFFFFF" points="31.7,17.9 30.1,16.3 24,22.5 17.9,16.3 16.3,17.9 
			22.5,24 16.3,30.1 17.9,31.7 24,25.5 30.1,31.7 31.7,30.1 25.5,24 		"/>
	</g>
</g>
</svg>
