<?xml version="1.0" encoding="utf-8"?>
<!-- Generator: Adobe Illustrator 16.0.0, SVG Export Plug-In . SVG Version: 6.00 Build 0)  -->
<!DOCTYPE svg PUBLIC "-//W3C//DTD SVG 1.1//EN" "http://www.w3.org/Graphics/SVG/1.1/DTD/svg11.dtd">
<svg version="1.1" id="Layer_1" xmlns="http://www.w3.org/2000/svg" xmlns:xlink="http://www.w3.org/1999/xlink" x="0px" y="0px"
	 width="46px" height="46px" viewBox="0 0 46 46" enable-background="new 0 0 46 46" xml:space="preserve">
<linearGradient id="SVGID_1_" gradientUnits="userSpaceOnUse" x1="8.9824" y1="31.4951" x2="38.1699" y2="13.8076">
	<stop  offset="0" style="stop-color:#006CAF"/>
	<stop  offset="1" style="stop-color:#0F95D3"/>
</linearGradient>
<path fill-rule="evenodd" clip-rule="evenodd" fill="url(#SVGID_1_)" d="M23,0c12.7,0,23,10.3,23,23c0,12.7-10.3,23-23,23
	C10.3,46,0,35.7,0,23C0,10.3,10.3,0,23,0z"/>
<path fill-rule="evenodd" clip-rule="evenodd" fill="#FFFFFF" d="M23,4c10.5,0,19,8.5,19,19c0,10.5-8.5,19-19,19S4,33.5,4,23
	C4,12.5,12.5,4,23,4z"/>
<g>
	<g>
		<polygon fill-rule="evenodd" clip-rule="evenodd" fill="#0C8FCF" points="31,22 24,22 24,15 22,15 22,22 15,22 15,24 22,24 22,31 
			24,31 24,24 31,24 		"/>
	</g>
</g>
</svg>
